<svg xmlns="http://www.w3.org/2000/svg" style="display:none">

<symbol id="icon-instagram" viewBox="0 0 24 24">
<path fill="currentColor" d="M7.8 2h8.4A5.8 5.8 0 0 1 22 7.8v8.4A5.8 5.8 0 0 1 16.2 22H7.8A5.8 5.8 0 0 1 2 16.2V7.8A5.8 5.8 0 0 1 7.8 2zm0 2A3.8 3.8 0 0 0 4 7.8v8.4A3.8 3.8 0 0 0 7.8 20h8.4A3.8 3.8 0 0 0 20 16.2V7.8A3.8 3.8 0 0 0 16.2 4H7.8zm4.2 3.3A4.7 4.7 0 1 1 7.3 12 4.7 4.7 0 0 1 12 7.3zm0 2A2.7 2.7 0 1 0 14.7 12 2.7 2.7 0 0 0 12 9.3zm4.8-.9a1.1 1.1 0 1 1-1.1-1.1 1.1 1.1 0 0 1 1.1 1.1z"/>
</symbol>

<symbol id="icon-twitter" viewBox="0 0 24 24">
<path fill="currentColor" d="M22 5.9c-.8.4-1.6.6-2.4.7a4.1 4.1 0 0 0 1.8-2.3 8.2 8.2 0 0 1-2.6 1 4.1 4.1 0 0 0-7 3.7A11.7 11.7 0 0 1 3 4.8a4.1 4.1 0 0 0 1.3 5.5 4 4 0 0 1-1.9-.5v.1a4.1 4.1 0 0 0 3.3 4 4.2 4.2 0 0 1-1.9.1 4.1 4.1 0 0 0 3.8 2.8A8.3 8.3 0 0 1 2 19.5a11.6 11.6 0 0 0 6.3 1.8c7.5 0 11.6-6.2 11.6-11.6v-.5A8.3 8.3 0 0 0 22 5.9z"/>
</symbol>

<symbol id="icon-facebook" viewBox="0 0 24 24">
<path fill="currentColor" d="M13.5 22v-9h3l.5-3h-3.5V7.8c0-.9.3-1.6 1.7-1.6H17V3.2c-.3 0-1.3-.2-2.4-.2-2.4 0-4 1.5-4 4.2V10H8v3h2.6v9h2.9z"/>
</symbol>

<symbol id="icon-linkedin" viewBox="0 0 24 24">
<path fill="currentColor" d="M4.98 3.5A2.5 2.5 0 1 1 2.5 6a2.5 2.5 0 0 1 2.48-2.5zM3 8h4v13H3zm7 0h3.8v1.8h.1a4.2 4.2 0 0 1 3.8-2.1c4 0 4.7 2.6 4.7 6V21h-4v-6c0-1.4 0-3.2-2-3.2s-2.3 1.5-2.3 3V21h-4z"/>
</symbol>

</svg>
